<svg xmlns="http://www.w3.org/2000/svg" viewBox="0 0 420 260"><defs><linearGradient id="bg" x2="1" y2="1"><stop stop-color="#edf8f4"/><stop offset="1" stop-color="#d7eee7"/></linearGradient><linearGradient id="box" x2="1" y2="1"><stop stop-color="#ffffff"/><stop offset="1" stop-color="#dcebe7"/></linearGradient></defs><rect width="420" height="260" rx="28" fill="url(#bg)"/><ellipse cx="220" cy="218" rx="132" ry="18" fill="#b8d4cc" opacity=".35"/><g transform="translate(92 35)"><rect width="180" height="150" rx="10" fill="url(#box)" stroke="#bdd4ce"/><rect width="180" height="46" rx="10" fill="#0f6b57"/><path d="M0 46h180v32c-28-12-56-12-90 0S28 90 0 78z" fill="#19a885"/><text x="18" y="30" font-family="Arial" font-size="18" font-weight="700" fill="#fff">MEDICAMENTO</text><rect x="18" y="64" width="144" height="8" rx="4" fill="#d62828"/><rect x="18" y="86" width="112" height="11" rx="5" fill="#27443f"/><rect x="18" y="106" width="88" height="8" rx="4" fill="#8ca8a1"/><rect x="18" y="123" width="118" height="7" rx="4" fill="#b4c8c3"/></g><g transform="translate(275 120)"><rect x="0" y="0" width="95" height="66" rx="18" fill="#f6fbfa" stroke="#c2d9d3"/><circle cx="26" cy="25" r="9" fill="#dfece8" stroke="#a9c3bc"/><circle cx="60" cy="25" r="9" fill="#dfece8" stroke="#a9c3bc"/><circle cx="26" cy="48" r="9" fill="#dfece8" stroke="#a9c3bc"/><circle cx="60" cy="48" r="9" fill="#dfece8" stroke="#a9c3bc"/></g></svg>